<svg width="1086" height="1086" viewBox="0 0 1086 1086" fill="none" xmlns="http://www.w3.org/2000/svg">
<path d="M768.295 415.187L892.483 577.031C909.966 599.815 905.668 632.458 882.884 649.941L517.941 929.971C405.773 1016.04 245.07 994.883 159 882.715L768.295 415.187Z" fill="url(#paint0_linear_213_88)"/>
<path d="M565.197 156.029C677.365 69.9598 838.069 91.1168 924.138 203.285L314.843 670.814L190.656 508.97C173.173 486.186 177.47 453.543 200.254 436.06L565.197 156.029Z" fill="url(#paint1_linear_213_88)"/>
<path d="M211 671.187C182.281 671.187 159 647.905 159 619.187L159 519.187C159 461.749 205.562 415.187 263 415.187L875 415.187C903.719 415.187 927 438.468 927 467.187V567.187C927 624.624 880.438 671.187 823 671.187L211 671.187Z" fill="url(#paint2_linear_213_88)"/>
<circle cx="766" cy="766" r="184" fill="url(#paint3_linear_213_88)" stroke="url(#paint4_linear_213_88)" stroke-width="16"/>
<path d="M691.333 680.667H840.666C843.689 680.667 846.224 681.691 848.272 683.739C850.32 685.787 851.34 688.319 851.333 691.334C851.326 694.349 850.302 696.884 848.261 698.939C846.22 700.994 843.689 702.015 840.666 702H691.333C688.311 702 685.779 700.976 683.739 698.928C681.698 696.88 680.674 694.349 680.667 691.334C680.66 688.319 681.684 685.787 683.739 683.739C685.794 681.691 688.325 680.667 691.333 680.667ZM691.333 851.334C688.311 851.334 685.779 850.31 683.739 848.262C681.698 846.214 680.674 843.682 680.667 840.667V787.334H678.8C675.422 787.334 672.667 786.043 670.533 783.462C668.4 780.88 667.689 777.904 668.4 774.534L679.067 721.2C679.6 718.711 680.844 716.667 682.8 715.067C684.755 713.467 686.978 712.667 689.467 712.667H842.533C845.022 712.667 847.244 713.467 849.2 715.067C851.155 716.667 852.4 718.711 852.933 721.2L863.6 774.534C864.311 777.911 863.6 780.887 861.466 783.462C859.333 786.036 856.577 787.326 853.2 787.334H851.333V840.667C851.333 843.689 850.309 846.224 848.261 848.272C846.213 850.32 843.681 851.341 840.666 851.334C837.651 851.326 835.12 850.302 833.072 848.262C831.024 846.221 830 843.689 830 840.667V787.334H787.333V840.667C787.333 843.689 786.309 846.224 784.261 848.272C782.213 850.32 779.682 851.341 776.666 851.334H691.333ZM702 830H766V787.334H702V830Z" fill="url(#paint5_linear_213_88)"/>
<defs>
<linearGradient id="paint0_linear_213_88" x1="846.217" y1="516.736" x2="236.922" y2="984.265" gradientUnits="userSpaceOnUse">
<stop stop-color="#33FFBB"/>
<stop offset="0.02" stop-color="#33FFBB"/>
<stop offset="1" stop-color="#138660"/>
</linearGradient>
<linearGradient id="paint1_linear_213_88" x1="846.217" y1="101.736" x2="236.922" y2="569.265" gradientUnits="userSpaceOnUse">
<stop stop-color="#33FFBB"/>
<stop offset="0.98" stop-color="#138660"/>
<stop offset="1" stop-color="#138660"/>
</linearGradient>
<linearGradient id="paint2_linear_213_88" x1="159" y1="543.187" x2="927" y2="543.187" gradientUnits="userSpaceOnUse">
<stop stop-color="#138660"/>
<stop offset="1" stop-color="#33FFBB"/>
</linearGradient>
<linearGradient id="paint3_linear_213_88" x1="766" y1="574" x2="766" y2="958" gradientUnits="userSpaceOnUse">
<stop stop-color="#33FFBB"/>
<stop offset="1" stop-color="#1F9970"/>
</linearGradient>
<linearGradient id="paint4_linear_213_88" x1="766" y1="574" x2="766" y2="958" gradientUnits="userSpaceOnUse">
<stop stop-color="#138660"/>
<stop offset="1" stop-color="#052017"/>
</linearGradient>
<linearGradient id="paint5_linear_213_88" x1="766" y1="680.667" x2="766" y2="851.334" gradientUnits="userSpaceOnUse">
<stop stop-color="#138660"/>
<stop offset="1" stop-color="#052017"/>
</linearGradient>
</defs>
</svg>
